<svg xmlns="http://www.w3.org/2000/svg" width="136.35" height="72.852" viewBox="0 0 136.35 72.852">
  <g id="Group_23" data-name="Group 23" transform="translate(-428.975 -284.976)">
    <g id="Group_15" data-name="Group 15" transform="translate(429 285.003)">
      <path id="Path_1" data-name="Path 1" d="M120.8,66.6v4.2a10.869,10.869,0,0,1-.1,1.8h1.4c0-.6-.1-1.2-.1-1.8V63.7h2.4a1.7,1.7,0,0,1,.7.1c0-.2-.1-.3-.1-.4a1.087,1.087,0,0,1,.1-.5h-7.2c0,.2.1.3.1.4a1.087,1.087,0,0,1-.1.5c.2,0,.4-.1.7-.1H121a13.678,13.678,0,0,0-.2,2.9M114,72.8h.2V66.6a6.6,6.6,0,0,1,.1-1.4,5.283,5.283,0,0,1,.1-1.3,2.22,2.22,0,0,1,.1-.9c-.2,0-.3.1-.5.1a1.087,1.087,0,0,1-.5-.1c0,.8.1,1.7.1,2.6v4.8c-.4-.4-.9-1-1.5-1.6s-1.2-1.3-1.8-2-1.3-1.4-1.9-2.1c-.7-.7-1.3-1.4-1.8-2h-.2v6a4.869,4.869,0,0,1-.1,1.2,3.75,3.75,0,0,1-.1,1.1c-.1.3,0,.7-.1.9,0,.3,0,.4-.1.5h1V64.9c1.2,1.3,2.4,2.6,3.7,3.9a43.882,43.882,0,0,0,3.3,4M97.4,66.6v4.2a10.869,10.869,0,0,1-.1,1.8h5.2v-.8c-.2,0-.5.1-.8.1a3.751,3.751,0,0,0-1,.1h-2V67.8h2.6a2.769,2.769,0,0,1,.9.1v-.8H98.7V63.4h2.1a2.2,2.2,0,0,1,.8.1,2.485,2.485,0,0,1,.8.1v-.8H97.2c0,.6.1,1.2.1,1.8a14.084,14.084,0,0,1,.1,2M83.9,62.8h-.2c-.1.8-.2,1.5-.3,2.4-.1.8-.2,1.7-.3,2.5a18.663,18.663,0,0,1-.4,2.5c-.1.8-.3,1.6-.4,2.4h1a7.084,7.084,0,0,1,.1-1.4,13.665,13.665,0,0,1,.2-1.9c.1-.7.1-1.3.2-2a13.665,13.665,0,0,0,.2-1.9h0c.6,1.2,1.2,2.5,1.9,3.6l1.8,3.6h.1c.6-1.3,1.2-2.5,1.8-3.7s1.3-2.3,1.9-3.5h0c.2,1.2.3,2.4.4,3.6l.3,3.6h1.2l-.3-2.4-.3-2.4c-.1-.8-.2-1.6-.3-2.5-.1-.8-.2-1.7-.3-2.6H92c-.2.4-.5.9-.8,1.4s-.5,1-.8,1.5-.5,1-.8,1.5-.5,1-.8,1.4a10.907,10.907,0,0,1-.6,1.1,5.9,5.9,0,0,0-.4.8l-2.1-3.9c-.5-1.1-1.1-2.4-1.8-3.7m-9.8,3.8v4.2a10.869,10.869,0,0,1-.1,1.8h5.2v-.8c-.2,0-.5.1-.8.1a3.751,3.751,0,0,0-1,.1h-2V67.8H78a2.769,2.769,0,0,1,.9.1v-.8H75.4V63.4h2.1a2.2,2.2,0,0,1,.8.1,2.485,2.485,0,0,1,.8.1v-.8H73.9c0,.6.1,1.2.1,1.8a14.084,14.084,0,0,1,.1,2m-4.7-1.9h.2c0-.2.1-.4.1-.6.1-.2.1-.4.2-.5l-.6-.3a6.89,6.89,0,0,0-.8-.3,2.959,2.959,0,0,0-1-.2c-.4,0-.8-.1-1.3-.1a8.524,8.524,0,0,0-2.3.3,4.043,4.043,0,0,0-1.7,1,4.569,4.569,0,0,0-1.1,1.6,4.638,4.638,0,0,0-.4,2.1,5.087,5.087,0,0,0,.4,2.2,4.052,4.052,0,0,0,2.8,2.5,8.017,8.017,0,0,0,2.3.3,2.769,2.769,0,0,0,.9-.1c.3,0,.7-.1,1-.1.3-.1.6-.1.9-.2a2.544,2.544,0,0,1,.7-.2v-4a.367.367,0,0,0-.3.1h-.3a1.952,1.952,0,0,1-.7-.1v3.6c-.1.1-.3.1-.4.2a1.268,1.268,0,0,1-.6.1c-.2,0-.4.1-.6.1h-.6a5.23,5.23,0,0,1-1.8-.3,3.045,3.045,0,0,1-1.3-.9,3.224,3.224,0,0,1-.8-1.4,5.822,5.822,0,0,1-.3-1.9,5.618,5.618,0,0,1,.3-2,3.39,3.39,0,0,1,.9-1.4,3.528,3.528,0,0,1,1.3-.8,4.146,4.146,0,0,1,1.6-.3,3.083,3.083,0,0,1,1,.1l.9.3a4.347,4.347,0,0,1,.7.4,3.783,3.783,0,0,1,.7.8M57.9,71.6a11.639,11.639,0,0,1-.6-1.5c-.2-.5-.5-1.1-.8-1.8s-.5-1.3-.8-1.9-.5-1.3-.8-1.9a13.355,13.355,0,0,1-.7-1.8h-.3c-.7,1.7-1.5,3.3-2.2,5-.7,1.6-1.5,3.3-2.2,4.9h1c.1-.4.3-1,.5-1.6a18.029,18.029,0,0,1,.8-2.1h3.6a10.376,10.376,0,0,1,.4,1c.1.3.3.7.4,1s.3.7.4,1a6.89,6.89,0,0,0,.3.8h1.5c-.1-.3-.3-.6-.5-1.1m-4.2-6.9,1.6,3.6H52.1Zm-7.8,8.1h.2V66.6a6.6,6.6,0,0,1,.1-1.4,5.283,5.283,0,0,1,.1-1.3,2.22,2.22,0,0,1,.1-.9c-.2,0-.3.1-.5.1a1.087,1.087,0,0,1-.5-.1c0,.8.1,1.7.1,2.6v4.8c-.4-.4-.9-1-1.5-1.6s-1.2-1.3-1.8-2-1.3-1.4-1.9-2.1c-.7-.7-1.3-1.4-1.8-2h-.2v6a4.869,4.869,0,0,1-.1,1.2,3.75,3.75,0,0,1-.1,1.1,2.22,2.22,0,0,1-.1.9c0,.3,0,.4-.1.5h1V64.9c1.2,1.3,2.4,2.6,3.7,3.9a43.879,43.879,0,0,0,3.3,4M34,71.6a11.639,11.639,0,0,1-.6-1.5c-.2-.5-.5-1.1-.8-1.8s-.5-1.3-.8-1.9-.5-1.3-.8-1.9a13.355,13.355,0,0,1-.7-1.8H30c-.7,1.7-1.5,3.3-2.2,5-.7,1.6-1.5,3.3-2.2,4.9h1c.1-.4.3-1,.5-1.6a18.029,18.029,0,0,1,.8-2.1h3.6a10.375,10.375,0,0,1,.4,1c.1.3.3.7.4,1s.3.7.4,1a6.89,6.89,0,0,0,.3.8h1.6a5.423,5.423,0,0,1-.6-1.1m-4.2-6.9,1.6,3.6H28.2ZM13,62.8h-.2c-.1.8-.2,1.5-.3,2.4-.1.8-.2,1.7-.3,2.5a18.664,18.664,0,0,1-.4,2.5c-.1.8-.3,1.6-.4,2.4h1a7.084,7.084,0,0,1,.1-1.4,13.665,13.665,0,0,1,.2-1.9c.1-.7.1-1.3.2-2a13.664,13.664,0,0,0,.2-1.9h0c.6,1.2,1.2,2.5,1.9,3.6l1.8,3.6h.1c.6-1.3,1.2-2.5,1.8-3.7s1.3-2.3,1.9-3.5h0c.2,1.2.3,2.4.4,3.6l.3,3.6h1.2l-.3-2.4-.3-2.4c-.1-.8-.2-1.6-.3-2.5-.1-.8-.2-1.7-.3-2.6h-.2c-.2.4-.5.9-.8,1.4s-.5,1-.8,1.5-.5,1-.8,1.5-.5,1-.8,1.4a10.907,10.907,0,0,1-.6,1.1,5.9,5.9,0,0,0-.4.8l-2.1-3.9c-.5-1.1-1.2-2.4-1.8-3.7" fill="#fff" stroke="#707070" stroke-width="0.05"/>
    </g>
    <g id="Group_16" data-name="Group 16" transform="translate(429 285.003)">
      <path id="Path_2" data-name="Path 2" d="M114.5,51.6a9.723,9.723,0,0,1-.1,1.8h1.4V49.2a9.292,9.292,0,0,0,.5-1A7.459,7.459,0,0,1,117,47l.9-1.5c.4-.6.8-1.2,1.2-1.9a4.331,4.331,0,0,0-.5.1,1.087,1.087,0,0,1-.5-.1l-.6,1.2a8.265,8.265,0,0,1-.7,1.3c-.2.4-.5.8-.7,1.2a10.54,10.54,0,0,1-.7,1.1c-.5-.9-.9-1.7-1.4-2.5-.4-.8-.9-1.6-1.3-2.4h-1.6a5.735,5.735,0,0,0,.4.7,8.794,8.794,0,0,1,.6,1c.2.4.5.8.7,1.2s.5.8.7,1.2a8.794,8.794,0,0,0,.6,1,5.736,5.736,0,0,1,.4.7,8.817,8.817,0,0,1,0,2.3M104,47.3v4.2a10.869,10.869,0,0,1-.1,1.8h1.4c0-.6-.1-1.2-.1-1.8V44.4h2.4a1.7,1.7,0,0,1,.7.1c0-.2-.1-.3-.1-.4a1.087,1.087,0,0,1,.1-.5h-7.2c0,.2.1.3.1.4a1.087,1.087,0,0,1-.1.5c.2,0,.4-.1.7-.1h2.4a14.645,14.645,0,0,0-.2,2.9m-7.7,0v4.2a10.869,10.869,0,0,1-.1,1.8h1.4c0-.6-.1-1.2-.1-1.8v-6a10.869,10.869,0,0,1,.1-1.8H96.2c0,.6.1,1.2.1,1.8s0,1.2,0,1.8m-4.7,6.2h.2V47.3a6.6,6.6,0,0,1,.1-1.4,5.283,5.283,0,0,1,.1-1.3,2.22,2.22,0,0,1,.1-.9c-.2,0-.3.1-.5.1a1.087,1.087,0,0,1-.5-.1c0,.8.1,1.7.1,2.6v4.8c-.4-.4-.9-1-1.5-1.6s-1.2-1.3-1.8-2-1.3-1.4-1.9-2.1c-.7-.7-1.3-1.4-1.8-2H84v6a4.869,4.869,0,0,1-.1,1.2,3.75,3.75,0,0,1-.1,1.1,2.22,2.22,0,0,1-.1.9c0,.3,0,.4-.1.5h1V45.6c1.2,1.3,2.4,2.6,3.7,3.9a33.471,33.471,0,0,0,3.3,4M78.5,49.2a3.4,3.4,0,0,1-.1,1,3.809,3.809,0,0,1-.3,1,2.177,2.177,0,0,1-.5.8,3.49,3.49,0,0,1-.9.6,2.745,2.745,0,0,1-1.3.2,4.438,4.438,0,0,1-1.3-.2,1.934,1.934,0,0,1-.9-.5,2.177,2.177,0,0,1-.5-.8l-.3-.9a3.4,3.4,0,0,1-.1-1V45.5a3.75,3.75,0,0,1,.1-1.1c.1-.3,0-.6.1-.8H71.1a8.636,8.636,0,0,0,.1,1.5v4.3a3.753,3.753,0,0,0,1,3,4.413,4.413,0,0,0,3.1,1,4.671,4.671,0,0,0,1.7-.3,2.55,2.55,0,0,0,1.2-.8A4.11,4.11,0,0,0,79,51a4.671,4.671,0,0,0,.3-1.7V47.7a8.6,8.6,0,0,1,.1-1.6,7.569,7.569,0,0,1,.1-1.5c0-.5.1-.8.1-1.2-.2,0-.3.1-.4.1h-.6c0,.3.1.8.1,1.5v3.1a2.345,2.345,0,0,0-.2,1.1M57.8,43.5h-.2c-.1.8-.2,1.5-.3,2.4-.1.8-.2,1.7-.3,2.5a18.664,18.664,0,0,1-.4,2.5c-.1.8-.3,1.6-.4,2.4h1a7.084,7.084,0,0,1,.1-1.4,13.664,13.664,0,0,1,.2-1.9c.1-.7.1-1.3.2-2a13.665,13.665,0,0,0,.2-1.9h0c.6,1.2,1.2,2.5,1.9,3.6l1.8,3.6h.1c.6-1.3,1.2-2.5,1.8-3.7s1.3-2.3,1.9-3.5h0c.2,1.2.3,2.4.4,3.6l.3,3.6h1.2L67,50.9l-.3-2.4c-.1-.8-.2-1.6-.3-2.5-.1-.8-.2-1.7-.3-2.6h-.2c-.2.4-.5.9-.8,1.4s-.5,1-.8,1.5-.5,1-.8,1.5-.5,1-.8,1.4a10.908,10.908,0,0,1-.6,1.1,5.9,5.9,0,0,0-.4.8l-2.1-3.9c-.5-1.1-1.1-2.4-1.8-3.7m-14.4,0h-.2c-.1.8-.2,1.5-.3,2.4-.1.8-.2,1.7-.3,2.5a18.664,18.664,0,0,1-.4,2.5c-.1.8-.3,1.6-.4,2.4h1a7.084,7.084,0,0,1,.1-1.4,13.664,13.664,0,0,1,.2-1.9c.1-.7.1-1.3.2-2a13.665,13.665,0,0,0,.2-1.9h0c.6,1.2,1.2,2.5,1.9,3.6l1.8,3.6h.1c.6-1.3,1.2-2.5,1.8-3.7s1.3-2.3,1.9-3.5h0c.2,1.2.3,2.4.4,3.6l.3,3.6h1.2l-.3-2.4-.3-2.4c-.1-.8-.2-1.6-.3-2.5-.1-.8-.2-1.7-.3-2.6h-.2c-.2.4-.5.9-.8,1.4s-.5,1-.8,1.5-.5,1-.8,1.5-.5,1-.8,1.4a10.908,10.908,0,0,1-.6,1.1,5.9,5.9,0,0,0-.4.8l-2.1-3.9c-.5-1.1-1.1-2.4-1.8-3.7m-6.3,7.1a4.678,4.678,0,0,1-.8,1.4,4.184,4.184,0,0,1-1.2.8,4.013,4.013,0,0,1-1.5.3,3.653,3.653,0,0,1-1.5-.3,3.6,3.6,0,0,1-1.2-.8,3.224,3.224,0,0,1-.8-1.4,6.014,6.014,0,0,1-.3-2,5.618,5.618,0,0,1,.3-2,4.678,4.678,0,0,1,.8-1.4,4.184,4.184,0,0,1,1.2-.8,4.013,4.013,0,0,1,1.5-.3,3.339,3.339,0,0,1,1.5.3,3.6,3.6,0,0,1,1.2.8,3.224,3.224,0,0,1,.8,1.4,6.014,6.014,0,0,1,.3,2,6.448,6.448,0,0,1-.3,2m-8.5.1a4.569,4.569,0,0,0,1.1,1.6,4.784,4.784,0,0,0,1.7,1,7.612,7.612,0,0,0,2.1.3,6.648,6.648,0,0,0,2.1-.3,4.248,4.248,0,0,0,1.7-1,4.569,4.569,0,0,0,1.1-1.6,5.712,5.712,0,0,0,0-4.2,4.569,4.569,0,0,0-1.1-1.6,4.784,4.784,0,0,0-1.7-1,7.106,7.106,0,0,0-2.1-.3,6.648,6.648,0,0,0-2.1.3,5.854,5.854,0,0,0-1.7,1,4.569,4.569,0,0,0-1.1,1.6,4.638,4.638,0,0,0-.4,2.1,5.222,5.222,0,0,0,.4,2.1m-3.3,2.1.1-.8-.1-.1c-.1.1-.3.2-.5.4-.2.1-.4.3-.6.4a6.89,6.89,0,0,1-.8.3,2.769,2.769,0,0,1-.9.1,3.339,3.339,0,0,1-1.5-.3,3.6,3.6,0,0,1-1.2-.8,3.224,3.224,0,0,1-.8-1.4,6.014,6.014,0,0,1-.3-2,5.618,5.618,0,0,1,.3-2,4.678,4.678,0,0,1,.8-1.4,4.184,4.184,0,0,1,1.2-.8,4.013,4.013,0,0,1,1.5-.3,2.769,2.769,0,0,1,.9.1c.3.1.5.2.8.3.2.1.4.3.6.4s.3.3.4.4h.1c0-.2.1-.3.1-.6a.764.764,0,0,1,.2-.5,10.865,10.865,0,0,0-1.4-.5,8.807,8.807,0,0,0-1.7-.2,6.648,6.648,0,0,0-2.1.3,5.854,5.854,0,0,0-1.7,1,4.569,4.569,0,0,0-1.1,1.6,5.712,5.712,0,0,0,0,4.2,4.569,4.569,0,0,0,1.1,1.6,5.372,5.372,0,0,0,1.6,1,6.648,6.648,0,0,0,2.1.3,3.4,3.4,0,0,0,1-.1c.3-.1.6-.1.9-.2A6.372,6.372,0,0,0,25,53c.1-.1.2-.2.3-.2" fill="#fff" stroke="#707070" stroke-width="0.05"/>
    </g>
    <g id="Group_17" data-name="Group 17" transform="translate(429 285.003)">
      <path id="Path_3" data-name="Path 3" d="M54.2,19.7a10.265,10.265,0,0,0,0-3.5L53,7,46.2,19.7H44.9l-7-13.3L36.6,16.5a19.441,19.441,0,0,0-.1,3.3H34a7.286,7.286,0,0,0,.8-3.1L37,0h1.1l8.1,15.5L54.4,0h.8l2.3,16.6a7.147,7.147,0,0,0,.9,3.1Z" fill="#fff" stroke="#707070" stroke-width="0.05"/>
    </g>
    <g id="Group_18" data-name="Group 18" transform="translate(429.3 285.103)">
      <path id="Path_4" data-name="Path 4" d="M32.9,17.8l-.3,2h-14a6.234,6.234,0,0,0,.5-3.1V3.1A7.629,7.629,0,0,0,18.6,0H32.3V2a4.875,4.875,0,0,1-.7-.3,5.263,5.263,0,0,0-1.8-.4H22.3V9h8.8l-.4,1.5H22.3v7.7h8a7.116,7.116,0,0,0,2.7-.7l-.1.3Z" fill="#fff" stroke="#707070" stroke-width="0.05"/>
    </g>
    <g id="Group_19" data-name="Group 19" transform="translate(429 285.003)">
      <path id="Path_5" data-name="Path 5" d="M104.2,9.6V1.2c6.2-.2,6.8,2.8,6.9,4.2a3.806,3.806,0,0,1-2.4,3.9h-.1c-1,.5-4.4.3-4.4.3m4.2.9.8-.1c2.8-.4,5.1-2,5.1-5,0-5.7-6.8-5.4-9.7-5.4h-4.2a6.234,6.234,0,0,1,.5,3.1V16.6a7.629,7.629,0,0,1-.5,3.1h4.3a6.483,6.483,0,0,1-.6-3.1V10.5a2.877,2.877,0,0,1,2,1.2,76.924,76.924,0,0,0,7.7,8h4c-.4-.3-9.4-9.2-9.4-9.2" fill="#fff" stroke="#707070" stroke-width="0.05"/>
    </g>
    <g id="Group_20" data-name="Group 20" transform="translate(429 285.003)">
      <path id="Path_6" data-name="Path 6" d="M86.1,11.1l2.6-5.9,2.7,5.9Zm11.2,5.4L89.8,0h-.9L81.3,17a8.276,8.276,0,0,1-1.7,2.7h2.7l3.2-7.2H92l3.3,7.2h4.3a8.5,8.5,0,0,1-2.3-3.2" fill="#fff" stroke="#707070" stroke-width="0.05"/>
    </g>
    <g id="Group_21" data-name="Group 21" transform="translate(429 285.003)">
      <path id="Path_7" data-name="Path 7" d="M65.6,11.1l2.6-5.9,2.7,5.9Zm11.2,5.4L69.3,0h-.9L60.8,17a8.276,8.276,0,0,1-1.7,2.7h2.6l3.2-7.2h6.5l3.3,7.2H79a9.555,9.555,0,0,1-2.2-3.2" fill="#fff" stroke="#707070" stroke-width="0.05"/>
    </g>
    <g id="Group_22" data-name="Group 22" transform="translate(429 285.003)">
      <rect id="Rectangle_1" data-name="Rectangle 1" width="136.3" height="0.5" transform="translate(0 31.4)" fill="#fff" stroke="#707070" stroke-width="0.05"/>
    </g>
  </g>
</svg>
